<?xml version="1.0" encoding="utf-8"?>
<!DOCTYPE svg PUBLIC "-//W3C//DTD SVG 20010904//EN" "http://www.w3.org/TR/2001/REC-SVG-20010904/DTD/svg10.dtd">
<svg version="1.0" xmlns="http://www.w3.org/2000/svg" width="1200px" height="1200px" viewBox="0 0 1200 1200" preserveAspectRatio="xMidYMid meet">
 <g fill="#2c2f33">
  <path d="M0 600 l0 -600 600 0 600 0 0 600 0 600 -600 0 -600 0 0 -600z m519.5 321 c19.7 -1.8 33.9 -5.1 50.4 -11.7 19 -7.6 33.2 -17.2 49.1 -33.2 21.3 -21.4 36.4 -49.7 43.6 -81.5 6.1 -26.8 5.7 -14.1 6.1 -216.8 l0.4 -185.8 -42.6 0 -42.5 0 0 181.8 c0 191.3 -0.2 199.1 -4.5 218 -5.4 23.1 -24.3 45 -47.1 54.5 -11.6 4.8 -18.8 6.1 -34.9 6 -13.3 0 -16 -0.4 -24 -2.7 -4.9 -1.5 -12.6 -4.6 -16.9 -6.9 -9.2 -4.9 -21.8 -16.2 -27.7 -24.9 -2.2 -3.2 -4.2 -5.8 -4.5 -5.8 -0.2 0 -3.2 1.1 -6.5 2.5 -8.8 3.8 -28.3 9.2 -44.8 12.5 -7.9 1.6 -14.5 3.1 -14.8 3.3 -0.8 0.9 9.6 19.8 15.3 27.7 8 11.2 25.9 28.2 38 36.3 11.4 7.6 29.3 16.4 40.8 20.2 7.6 2.4 24.2 6 31.6 6.8 7.5 0.8 25 0.7 35.5 -0.3z m394 -1.6 c72.4 -9.2 126.1 -48.7 145.4 -107.1 5.7 -17 7.5 -30.2 6.8 -48.8 -0.9 -22.9 -4.8 -38.8 -13.9 -56.9 -13.3 -26.5 -36.7 -48.3 -70.7 -65.5 -13.5 -6.8 -12.8 -6.5 -58.6 -25.6 -61.7 -25.9 -65.8 -27.7 -75.2 -32.8 -22.3 -12.1 -34.7 -26 -38.2 -42.5 -1.4 -6.7 -1.4 -21.1 0 -28.8 1.5 -8.4 7.9 -20.9 13.6 -26.8 10.1 -10.3 23.4 -16.9 41.3 -20.6 9.5 -2 12.7 -2.1 33 -1.7 17.9 0.4 24.4 0.9 31.7 2.5 25.3 5.7 47.7 16.5 70.5 33.9 l5.7 4.3 5.2 -6.2 c7.2 -8.7 9.9 -12 24.8 -30.5 l13.1 -16.2 -10.3 -8.6 c-35 -29.6 -79.8 -48.6 -126.2 -53.6 -22 -2.3 -52.3 0.4 -74.7 6.7 -70 19.6 -115.8 73.5 -115.9 136.4 -0.1 50.9 26.9 93.1 78.8 122.9 7.5 4.3 13 6.9 31.8 15.1 6.1 2.6 20.9 9.1 33 14.5 12.1 5.3 31 13.5 42 18.2 24.9 10.6 31.9 14.1 42.2 21 15.3 10.2 24.4 22.2 27.8 36.5 1.9 8 1.9 26.2 0.1 34.8 -6.2 29.3 -32.1 47.9 -72.7 52.1 -13.5 1.4 -37.9 0.7 -49.9 -1.5 -34.7 -6.3 -71.7 -24.3 -100.2 -48.8 l-5.6 -4.9 -9.5 11.3 c-5.2 6.2 -16 19 -24.1 28.3 l-14.5 17 5.7 5.4 c17.7 16.6 44.5 34.1 69.3 45.2 44.8 19.9 91.9 27.2 138.4 21.3z m-403 -91.5 c11.3 -2.5 26.2 -11.7 33.7 -21 8.5 -10.4 14.8 -26.8 14.8 -38.4 0 -6.1 -3.9 -20.5 -7.1 -26.2 -11 -19.5 -29.5 -32 -50.5 -34 -17.8 -1.7 -39.9 9.6 -52.1 26.5 -5.9 8.3 -8.8 15.4 -11 26.5 -1.3 7.1 -1.3 8.6 0.2 16 3.6 18 12.7 31.7 27.7 41.8 13.7 9.3 28.3 12.2 44.3 8.8z m-179 -17.8 c30.9 -3.3 56.8 -9.4 81.3 -19.2 l3.2 -1.3 -0.7 -6.6 c-3.1 -26.3 2.2 -48.3 15.8 -66.4 10.1 -13.3 27.9 -25 44.4 -29.2 7.6 -2 30.4 -2.6 40.2 -1.1 5.2 0.7 5.2 0.7 6.7 -2.5 10.5 -22.7 18.3 -52 22.8 -85.1 3 -22 3.2 -69.8 0.5 -91.2 -10.4 -80.9 -41.4 -136.4 -96 -171.9 -28.6 -18.7 -64.6 -31 -108.7 -37.2 -10.9 -1.6 -22.9 -1.8 -96.2 -2.2 l-83.8 -0.3 0 258.1 0 258.2 79.8 -0.5 c49.3 -0.3 83.9 -0.9 90.7 -1.6z"/>
  <path d="M248 553.5 l0 -188.5 31.3 0 c42 0.1 60.7 2.5 84.2 10.8 21.1 7.4 36.8 17.5 51.7 33 22.3 23.2 35.4 53.9 41.3 96.7 2.3 16.2 3.1 58.3 1.6 76.8 -6.1 71.7 -32.5 118.4 -80.6 142.5 -10.4 5.1 -24.1 10 -35.8 12.6 -15.6 3.6 -29.3 4.6 -61.8 4.6 l-31.9 0 0 -188.5z"/>
 </g>
 <g fill="#2eb6e6">
  <path d="M481 924.3 c-7.4 -0.8 -24 -4.4 -31.6 -6.8 -11.5 -3.8 -29.4 -12.6 -40.8 -20.2 -12.5 -8.3 -30.3 -25.4 -38.6 -37.1 -5.7 -8.1 -15.2 -25.9 -16.3 -30.8 -0.4 -2 0.4 -2.3 13.2 -4.7 17.9 -3.5 37 -8.8 49.2 -13.7 5.5 -2.2 10.1 -4 10.3 -4 0.2 0 2.3 2.9 4.6 6.5 6 9.3 19 21.1 28.6 26.2 12.8 6.7 23.6 9.5 37.9 9.5 12.9 0.1 21.2 -1.4 31.9 -5.9 27.1 -11.3 46 -36.9 49.1 -66.3 0.3 -3 1 -9.5 1.5 -14.5 0.6 -5.5 1 -79.2 1 -191.2 l0 -182.3 45.5 0 45.6 0 -0.4 188.8 c-0.4 206 0 193 -6.1 219.8 -10.5 46.4 -38.6 85.8 -76 106.8 -14.1 7.8 -33.7 14.8 -49.6 17.5 -15.2 2.6 -45.5 3.8 -59 2.4z"/>
  <path d="M861 923.9 c-53.6 -4.7 -103 -24 -144.5 -56.4 -9.4 -7.3 -21.5 -18.3 -21.5 -19.5 0 -0.4 9.1 -11.5 20.3 -24.7 11.1 -13.1 21.5 -25.4 23.1 -27.3 1.6 -1.9 4.4 -5.2 6.3 -7.3 l3.4 -3.8 5.7 5.2 c16.2 14.9 41.2 30.5 63.4 39.8 34.9 14.4 72.5 17.8 104.6 9.5 34.2 -8.9 53.9 -32.6 53.1 -63.9 -0.6 -21.6 -9.3 -36.5 -29.2 -49.8 -10.3 -6.9 -17.3 -10.4 -42.2 -21 -11 -4.7 -29.9 -12.9 -42 -18.2 -12.1 -5.4 -26.9 -11.9 -33 -14.5 -25.1 -10.9 -31.9 -14.5 -47.1 -24.6 -23.9 -16.1 -43.4 -38.8 -53.4 -62.4 -11.5 -27.1 -13.6 -64.1 -5.4 -91.5 15 -49.4 55.1 -86.2 111.2 -101.9 23 -6.5 55.8 -9.2 80.3 -6.7 37 3.8 75.6 17.7 106 38 10.3 6.9 32.9 25.4 32.9 26.9 0 0.6 -21.4 27.6 -29.8 37.7 -1 1.1 -5.3 6.4 -9.6 11.7 -4.6 5.6 -8.4 9.4 -9 9.1 -0.6 -0.4 -3.5 -2.6 -6.4 -5 -15.8 -12.9 -36.8 -24.5 -55.6 -30.8 -15.5 -5.2 -24.8 -6.7 -45.6 -7.2 -17.3 -0.4 -20.7 -0.2 -30 1.7 -25.1 5.1 -41.6 16.2 -50 33.5 -4.6 9.5 -6.5 19 -5.7 29.4 1.4 21 13.6 36.2 40.7 50.8 7.7 4.1 12.8 6.4 73.5 31.8 45.8 19.1 45.1 18.8 58.6 25.6 34 17.2 57.4 39 70.7 65.5 9.6 19.2 13.1 34.1 13.9 59.9 0.7 21.9 -0.9 34.3 -6.8 51.8 -8.5 25.9 -22.9 47.1 -43.4 64.5 -33.9 28.6 -76.5 43.2 -130.4 44.6 -9.1 0.3 -21.3 0.1 -27.1 -0.5z"/>
 </g>
 <g fill="#cdcccc">
  <path d="M158 554 l0 -261.1 86.8 0.3 c94.1 0.4 94.5 0.4 124.2 6.5 36.8 7.4 73.3 23.3 97 42.2 47.4 37.7 73.1 88.2 82.7 162.6 2.8 21.6 2.5 75 -0.5 97.2 -4.6 33.7 -12.3 62.2 -23.2 86 l-1.9 4.1 -5.8 -1.6 c-8.4 -2.3 -29.6 -2.2 -38.8 0.1 -28.3 7.4 -51.4 30.4 -58.4 58.4 -3.4 13.7 -3.5 21.9 -0.5 39.5 0.6 3.5 0.5 3.7 -3.9 5.6 -14.2 6.3 -38.4 13 -57.8 16.1 -24.7 4 -33 4.3 -117.1 4.8 l-82.8 0.5 0 -261.2z m162.4 183.5 c92.3 -12.1 138.2 -78.2 135.3 -194.8 -1 -40.2 -6.6 -68.5 -19 -94.9 -9.2 -19.8 -24.1 -38.3 -40.5 -50.5 -15.2 -11.3 -36.1 -20.2 -58.4 -24.7 -17.9 -3.7 -26.1 -4.4 -58 -4.5 l-28.8 -0.2 0 185.6 0 185.5 28.9 0 c20.1 0 32.5 -0.5 40.5 -1.5z"/>
 </g>
 <g fill="#3a9866">
  <path d="M486.5 831.5 c-17 -3.1 -31.6 -12.8 -41.4 -27.5 -21.5 -32.1 -9.6 -75.5 25.3 -92.6 18.8 -9.1 41.8 -8.3 59.9 2.3 24.6 14.4 36.7 43.3 29.7 70.7 -5.2 20.3 -21 37.8 -40.2 44.6 -11.3 3.9 -21.4 4.7 -33.3 2.5z"/>
 </g>
</svg>